<mxfile host="app.diagrams.net" modified="2020-07-24T11:48:39.887Z" agent="5.0 (Windows)" etag="NEo9CZogcdAAFxMWFMe_" version="13.5.1" type="github">
  <diagram id="C5RBs43oDa-KdzZeNtuy" name="Page-1">
    <mxGraphModel dx="868" dy="439" grid="1" gridSize="10" guides="1" tooltips="1" connect="1" arrows="1" fold="1" page="1" pageScale="1" pageWidth="827" pageHeight="1169" math="0" shadow="0">
      <root>
        <mxCell id="WIyWlLk6GJQsqaUBKTNV-0" />
        <mxCell id="WIyWlLk6GJQsqaUBKTNV-1" parent="WIyWlLk6GJQsqaUBKTNV-0" />
        <mxCell id="WIyWlLk6GJQsqaUBKTNV-2" value="" style="rounded=0;html=1;jettySize=auto;orthogonalLoop=1;fontSize=11;endArrow=block;endFill=0;endSize=8;strokeWidth=1;shadow=0;labelBackgroundColor=none;edgeStyle=orthogonalEdgeStyle;" parent="WIyWlLk6GJQsqaUBKTNV-1" source="WIyWlLk6GJQsqaUBKTNV-3" target="WIyWlLk6GJQsqaUBKTNV-6" edge="1">
          <mxGeometry relative="1" as="geometry" />
        </mxCell>
        <mxCell id="WIyWlLk6GJQsqaUBKTNV-3" value="&lt;div&gt;Install request&lt;/div&gt;&lt;div&gt;http://localhost:&amp;lt;port&amp;gt;/install?scope-id=&amp;lt;scopeid&amp;gt;&lt;br&gt;&lt;/div&gt;" style="rounded=1;whiteSpace=wrap;html=1;fontSize=12;glass=0;strokeWidth=1;shadow=0;" parent="WIyWlLk6GJQsqaUBKTNV-1" vertex="1">
          <mxGeometry x="250" width="150" height="70" as="geometry" />
        </mxCell>
        <mxCell id="WIyWlLk6GJQsqaUBKTNV-4" value="no" style="rounded=0;html=1;jettySize=auto;orthogonalLoop=1;fontSize=11;endArrow=block;endFill=0;endSize=8;strokeWidth=1;shadow=0;labelBackgroundColor=none;edgeStyle=orthogonalEdgeStyle;exitX=1;exitY=0.5;exitDx=0;exitDy=0;" parent="WIyWlLk6GJQsqaUBKTNV-1" source="pWM3bwc5xP9ZBW1kvqXN-0" target="WIyWlLk6GJQsqaUBKTNV-10" edge="1">
          <mxGeometry x="-0.8222" y="70" relative="1" as="geometry">
            <mxPoint as="offset" />
            <Array as="points">
              <mxPoint x="325" y="260" />
            </Array>
          </mxGeometry>
        </mxCell>
        <mxCell id="WIyWlLk6GJQsqaUBKTNV-5" value="yes" style="edgeStyle=orthogonalEdgeStyle;rounded=0;html=1;jettySize=auto;orthogonalLoop=1;fontSize=11;endArrow=block;endFill=0;endSize=8;strokeWidth=1;shadow=0;labelBackgroundColor=none;" parent="WIyWlLk6GJQsqaUBKTNV-1" source="WIyWlLk6GJQsqaUBKTNV-6" target="WIyWlLk6GJQsqaUBKTNV-7" edge="1">
          <mxGeometry y="10" relative="1" as="geometry">
            <mxPoint as="offset" />
          </mxGeometry>
        </mxCell>
        <mxCell id="m49f3VbfArDvr9oFj0-C-15" style="edgeStyle=orthogonalEdgeStyle;rounded=0;orthogonalLoop=1;jettySize=auto;html=1;entryX=0.5;entryY=0;entryDx=0;entryDy=0;" edge="1" parent="WIyWlLk6GJQsqaUBKTNV-1" source="WIyWlLk6GJQsqaUBKTNV-6" target="pWM3bwc5xP9ZBW1kvqXN-0">
          <mxGeometry relative="1" as="geometry" />
        </mxCell>
        <mxCell id="WIyWlLk6GJQsqaUBKTNV-6" value="check if application already in installation queue" style="rhombus;whiteSpace=wrap;html=1;shadow=0;fontFamily=Helvetica;fontSize=12;align=center;strokeWidth=1;spacing=6;spacingTop=-4;" parent="WIyWlLk6GJQsqaUBKTNV-1" vertex="1">
          <mxGeometry x="250" y="120" width="150" height="130" as="geometry" />
        </mxCell>
        <mxCell id="WIyWlLk6GJQsqaUBKTNV-7" value="log message and send audit" style="rounded=1;whiteSpace=wrap;html=1;fontSize=12;glass=0;strokeWidth=1;shadow=0;" parent="WIyWlLk6GJQsqaUBKTNV-1" vertex="1">
          <mxGeometry x="650" y="165" width="120" height="40" as="geometry" />
        </mxCell>
        <mxCell id="WIyWlLk6GJQsqaUBKTNV-8" value="No" style="rounded=0;html=1;jettySize=auto;orthogonalLoop=1;fontSize=11;endArrow=block;endFill=0;endSize=8;strokeWidth=1;shadow=0;labelBackgroundColor=none;edgeStyle=orthogonalEdgeStyle;" parent="WIyWlLk6GJQsqaUBKTNV-1" source="WIyWlLk6GJQsqaUBKTNV-10" target="WIyWlLk6GJQsqaUBKTNV-11" edge="1">
          <mxGeometry x="0.3333" y="20" relative="1" as="geometry">
            <mxPoint as="offset" />
            <Array as="points">
              <mxPoint x="90" y="340" />
            </Array>
          </mxGeometry>
        </mxCell>
        <mxCell id="WIyWlLk6GJQsqaUBKTNV-9" value="Yes" style="edgeStyle=orthogonalEdgeStyle;rounded=0;html=1;jettySize=auto;orthogonalLoop=1;fontSize=11;endArrow=block;endFill=0;endSize=8;strokeWidth=1;shadow=0;labelBackgroundColor=none;" parent="WIyWlLk6GJQsqaUBKTNV-1" source="WIyWlLk6GJQsqaUBKTNV-10" target="WIyWlLk6GJQsqaUBKTNV-12" edge="1">
          <mxGeometry y="10" relative="1" as="geometry">
            <mxPoint as="offset" />
          </mxGeometry>
        </mxCell>
        <mxCell id="WIyWlLk6GJQsqaUBKTNV-10" value="&lt;div&gt;Check application already installed&lt;/div&gt;&lt;div&gt;WMI-1&lt;br&gt;&lt;/div&gt;" style="rhombus;whiteSpace=wrap;html=1;shadow=0;fontFamily=Helvetica;fontSize=12;align=center;strokeWidth=1;spacing=6;spacingTop=-4;" parent="WIyWlLk6GJQsqaUBKTNV-1" vertex="1">
          <mxGeometry x="250" y="290" width="150" height="110" as="geometry" />
        </mxCell>
        <mxCell id="m49f3VbfArDvr9oFj0-C-2" value="" style="edgeStyle=orthogonalEdgeStyle;rounded=0;orthogonalLoop=1;jettySize=auto;html=1;" edge="1" parent="WIyWlLk6GJQsqaUBKTNV-1" source="WIyWlLk6GJQsqaUBKTNV-11" target="pWM3bwc5xP9ZBW1kvqXN-1">
          <mxGeometry relative="1" as="geometry" />
        </mxCell>
        <mxCell id="WIyWlLk6GJQsqaUBKTNV-11" value="&lt;div&gt;Get Application informatio(installInfo) from SCCM server.&lt;/div&gt;&lt;div&gt;Call installApplication method of Application catelog end point&lt;br&gt;&lt;/div&gt;" style="rounded=1;whiteSpace=wrap;html=1;fontSize=12;glass=0;strokeWidth=1;shadow=0;" parent="WIyWlLk6GJQsqaUBKTNV-1" vertex="1">
          <mxGeometry x="19" y="460" width="180" height="70" as="geometry" />
        </mxCell>
        <mxCell id="pWM3bwc5xP9ZBW1kvqXN-3" style="edgeStyle=orthogonalEdgeStyle;rounded=0;orthogonalLoop=1;jettySize=auto;html=1;entryX=0.583;entryY=1.075;entryDx=0;entryDy=0;entryPerimeter=0;" parent="WIyWlLk6GJQsqaUBKTNV-1" source="WIyWlLk6GJQsqaUBKTNV-12" target="WIyWlLk6GJQsqaUBKTNV-7" edge="1">
          <mxGeometry relative="1" as="geometry" />
        </mxCell>
        <mxCell id="WIyWlLk6GJQsqaUBKTNV-12" value="remove application from queue" style="rounded=1;whiteSpace=wrap;html=1;fontSize=12;glass=0;strokeWidth=1;shadow=0;" parent="WIyWlLk6GJQsqaUBKTNV-1" vertex="1">
          <mxGeometry x="660" y="310" width="120" height="40" as="geometry" />
        </mxCell>
        <mxCell id="pWM3bwc5xP9ZBW1kvqXN-0" value="Add Application to installation Queue" style="rounded=1;whiteSpace=wrap;html=1;" parent="WIyWlLk6GJQsqaUBKTNV-1" vertex="1">
          <mxGeometry x="10" y="230" width="120" height="60" as="geometry" />
        </mxCell>
        <mxCell id="pWM3bwc5xP9ZBW1kvqXN-2" style="edgeStyle=orthogonalEdgeStyle;rounded=0;orthogonalLoop=1;jettySize=auto;html=1;entryX=0.5;entryY=1;entryDx=0;entryDy=0;" parent="WIyWlLk6GJQsqaUBKTNV-1" source="pWM3bwc5xP9ZBW1kvqXN-1" target="WIyWlLk6GJQsqaUBKTNV-12" edge="1">
          <mxGeometry relative="1" as="geometry" />
        </mxCell>
        <mxCell id="m49f3VbfArDvr9oFj0-C-5" value="" style="edgeStyle=orthogonalEdgeStyle;rounded=0;orthogonalLoop=1;jettySize=auto;html=1;" edge="1" parent="WIyWlLk6GJQsqaUBKTNV-1" source="pWM3bwc5xP9ZBW1kvqXN-1" target="pWM3bwc5xP9ZBW1kvqXN-4">
          <mxGeometry relative="1" as="geometry" />
        </mxCell>
        <mxCell id="pWM3bwc5xP9ZBW1kvqXN-1" value="if null " style="rhombus;whiteSpace=wrap;html=1;" parent="WIyWlLk6GJQsqaUBKTNV-1" vertex="1">
          <mxGeometry x="285" y="455" width="80" height="80" as="geometry" />
        </mxCell>
        <mxCell id="m49f3VbfArDvr9oFj0-C-8" style="edgeStyle=orthogonalEdgeStyle;rounded=0;orthogonalLoop=1;jettySize=auto;html=1;" edge="1" parent="WIyWlLk6GJQsqaUBKTNV-1" source="pWM3bwc5xP9ZBW1kvqXN-4" target="pWM3bwc5xP9ZBW1kvqXN-5">
          <mxGeometry relative="1" as="geometry" />
        </mxCell>
        <mxCell id="m49f3VbfArDvr9oFj0-C-24" style="edgeStyle=orthogonalEdgeStyle;rounded=0;orthogonalLoop=1;jettySize=auto;html=1;" edge="1" parent="WIyWlLk6GJQsqaUBKTNV-1" source="pWM3bwc5xP9ZBW1kvqXN-4">
          <mxGeometry relative="1" as="geometry">
            <mxPoint x="720" y="640" as="targetPoint" />
          </mxGeometry>
        </mxCell>
        <mxCell id="pWM3bwc5xP9ZBW1kvqXN-4" value="can user install package" style="rhombus;whiteSpace=wrap;html=1;" parent="WIyWlLk6GJQsqaUBKTNV-1" vertex="1">
          <mxGeometry x="270" y="600" width="110" height="80" as="geometry" />
        </mxCell>
        <mxCell id="m49f3VbfArDvr9oFj0-C-9" style="edgeStyle=orthogonalEdgeStyle;rounded=0;orthogonalLoop=1;jettySize=auto;html=1;entryX=0;entryY=0.5;entryDx=0;entryDy=0;" edge="1" parent="WIyWlLk6GJQsqaUBKTNV-1" source="pWM3bwc5xP9ZBW1kvqXN-5" target="pWM3bwc5xP9ZBW1kvqXN-6">
          <mxGeometry relative="1" as="geometry" />
        </mxCell>
        <mxCell id="pWM3bwc5xP9ZBW1kvqXN-5" value="&lt;div&gt;signature verification&lt;/div&gt;&lt;div&gt;1. PolicyModelName&lt;/div&gt;&lt;div&gt;2. ApplicationID&lt;/div&gt;&lt;div&gt;Application catalog end point required &lt;br&gt;&lt;/div&gt;&lt;div&gt;WMI-3&lt;br&gt;&lt;/div&gt;" style="rounded=1;whiteSpace=wrap;html=1;" parent="WIyWlLk6GJQsqaUBKTNV-1" vertex="1">
          <mxGeometry x="10" y="710" width="129" height="90" as="geometry" />
        </mxCell>
        <mxCell id="m49f3VbfArDvr9oFj0-C-12" value="" style="edgeStyle=orthogonalEdgeStyle;rounded=0;orthogonalLoop=1;jettySize=auto;html=1;" edge="1" parent="WIyWlLk6GJQsqaUBKTNV-1" source="pWM3bwc5xP9ZBW1kvqXN-6" target="pWM3bwc5xP9ZBW1kvqXN-7">
          <mxGeometry relative="1" as="geometry" />
        </mxCell>
        <mxCell id="m49f3VbfArDvr9oFj0-C-31" style="edgeStyle=orthogonalEdgeStyle;rounded=0;orthogonalLoop=1;jettySize=auto;html=1;" edge="1" parent="WIyWlLk6GJQsqaUBKTNV-1" source="pWM3bwc5xP9ZBW1kvqXN-6">
          <mxGeometry relative="1" as="geometry">
            <mxPoint x="720" y="755" as="targetPoint" />
          </mxGeometry>
        </mxCell>
        <mxCell id="pWM3bwc5xP9ZBW1kvqXN-6" value="successfull" style="rhombus;whiteSpace=wrap;html=1;" parent="WIyWlLk6GJQsqaUBKTNV-1" vertex="1">
          <mxGeometry x="285" y="715" width="80" height="80" as="geometry" />
        </mxCell>
        <mxCell id="m49f3VbfArDvr9oFj0-C-13" value="" style="edgeStyle=orthogonalEdgeStyle;rounded=0;orthogonalLoop=1;jettySize=auto;html=1;" edge="1" parent="WIyWlLk6GJQsqaUBKTNV-1" source="pWM3bwc5xP9ZBW1kvqXN-7" target="pWM3bwc5xP9ZBW1kvqXN-8">
          <mxGeometry relative="1" as="geometry" />
        </mxCell>
        <mxCell id="pWM3bwc5xP9ZBW1kvqXN-7" value="&lt;div&gt;CCM_RequestAppPolicyActivation &lt;br&gt;&lt;/div&gt;&lt;div&gt;WMI-4&lt;br&gt;&lt;/div&gt;&lt;div&gt;WaitForPolicyApplication&lt;/div&gt;&lt;div&gt;WMI-5&lt;br&gt;&lt;/div&gt;" style="rounded=1;whiteSpace=wrap;html=1;" parent="WIyWlLk6GJQsqaUBKTNV-1" vertex="1">
          <mxGeometry x="145" y="850" width="360" height="60" as="geometry" />
        </mxCell>
        <mxCell id="m49f3VbfArDvr9oFj0-C-14" value="" style="edgeStyle=orthogonalEdgeStyle;rounded=0;orthogonalLoop=1;jettySize=auto;html=1;" edge="1" parent="WIyWlLk6GJQsqaUBKTNV-1" source="pWM3bwc5xP9ZBW1kvqXN-8" target="m49f3VbfArDvr9oFj0-C-0">
          <mxGeometry relative="1" as="geometry" />
        </mxCell>
        <mxCell id="pWM3bwc5xP9ZBW1kvqXN-8" value="&lt;div&gt;WaitForApplicationPolicyEvaluation&lt;/div&gt;&lt;div&gt;WMI-6&lt;br&gt;&lt;/div&gt;&lt;div&gt;CheckPolicyEvaluationState(installInfo);&lt;/div&gt;&lt;div&gt;WMI-7&lt;/div&gt;&lt;div&gt; &amp;nbsp;&amp;nbsp;&amp;nbsp;&amp;nbsp;&amp;nbsp;&amp;nbsp;&amp;nbsp;&amp;nbsp;&amp;nbsp;&amp;nbsp;&amp;nbsp;&amp;nbsp;&amp;nbsp;&amp;nbsp; InstallApplication(installInfo);&lt;/div&gt;&lt;div&gt;WMI8&lt;br&gt;&lt;/div&gt;" style="rounded=1;whiteSpace=wrap;html=1;" parent="WIyWlLk6GJQsqaUBKTNV-1" vertex="1">
          <mxGeometry x="160" y="980" width="330" height="90" as="geometry" />
        </mxCell>
        <mxCell id="m49f3VbfArDvr9oFj0-C-1" style="edgeStyle=orthogonalEdgeStyle;rounded=0;orthogonalLoop=1;jettySize=auto;html=1;entryX=0.5;entryY=1;entryDx=0;entryDy=0;" edge="1" parent="WIyWlLk6GJQsqaUBKTNV-1" source="m49f3VbfArDvr9oFj0-C-0" target="WIyWlLk6GJQsqaUBKTNV-12">
          <mxGeometry relative="1" as="geometry">
            <mxPoint x="720" y="360" as="targetPoint" />
            <Array as="points">
              <mxPoint x="720" y="1120" />
            </Array>
          </mxGeometry>
        </mxCell>
        <mxCell id="m49f3VbfArDvr9oFj0-C-0" value="Application instllation end (timer event )event(successfull/unsuccessfull)" style="rounded=1;whiteSpace=wrap;html=1;" vertex="1" parent="WIyWlLk6GJQsqaUBKTNV-1">
          <mxGeometry x="210" y="1090" width="230" height="60" as="geometry" />
        </mxCell>
        <mxCell id="m49f3VbfArDvr9oFj0-C-16" value="Yes" style="rounded=0;html=1;jettySize=auto;orthogonalLoop=1;fontSize=11;endArrow=block;endFill=0;endSize=8;strokeWidth=1;shadow=0;labelBackgroundColor=none;edgeStyle=orthogonalEdgeStyle;" edge="1" parent="WIyWlLk6GJQsqaUBKTNV-1">
          <mxGeometry x="1" y="450" relative="1" as="geometry">
            <mxPoint y="20" as="offset" />
            <Array as="points">
              <mxPoint x="90" y="340" />
            </Array>
            <mxPoint x="256.81818181818176" y="340" as="sourcePoint" />
            <mxPoint x="90" y="460" as="targetPoint" />
          </mxGeometry>
        </mxCell>
        <mxCell id="m49f3VbfArDvr9oFj0-C-23" value="No" style="rounded=0;html=1;jettySize=auto;orthogonalLoop=1;fontSize=11;endArrow=block;endFill=0;endSize=8;strokeWidth=1;shadow=0;labelBackgroundColor=none;edgeStyle=orthogonalEdgeStyle;" edge="1" parent="WIyWlLk6GJQsqaUBKTNV-1">
          <mxGeometry x="1" y="269" relative="1" as="geometry">
            <mxPoint x="-19" y="100" as="offset" />
            <Array as="points">
              <mxPoint x="90" y="340" />
            </Array>
            <mxPoint x="256.81818181818176" y="340" as="sourcePoint" />
            <mxPoint x="90" y="460" as="targetPoint" />
          </mxGeometry>
        </mxCell>
        <mxCell id="m49f3VbfArDvr9oFj0-C-25" value="No" style="rounded=0;html=1;jettySize=auto;orthogonalLoop=1;fontSize=11;endArrow=block;endFill=0;endSize=8;strokeWidth=1;shadow=0;labelBackgroundColor=none;edgeStyle=orthogonalEdgeStyle;" edge="1" parent="WIyWlLk6GJQsqaUBKTNV-1">
          <mxGeometry x="1" y="269" relative="1" as="geometry">
            <mxPoint x="-19" y="100" as="offset" />
            <Array as="points">
              <mxPoint x="90" y="340" />
            </Array>
            <mxPoint x="256.81818181818176" y="340" as="sourcePoint" />
            <mxPoint x="90" y="460" as="targetPoint" />
          </mxGeometry>
        </mxCell>
        <mxCell id="m49f3VbfArDvr9oFj0-C-27" value="NO" style="rounded=0;html=1;jettySize=auto;orthogonalLoop=1;fontSize=11;endArrow=block;endFill=0;endSize=8;strokeWidth=1;shadow=0;labelBackgroundColor=none;edgeStyle=orthogonalEdgeStyle;" edge="1" parent="WIyWlLk6GJQsqaUBKTNV-1">
          <mxGeometry x="1" y="462" relative="1" as="geometry">
            <mxPoint x="-32" y="170" as="offset" />
            <Array as="points">
              <mxPoint x="90" y="340" />
            </Array>
            <mxPoint x="256.81818181818176" y="340" as="sourcePoint" />
            <mxPoint x="90" y="460" as="targetPoint" />
          </mxGeometry>
        </mxCell>
        <mxCell id="m49f3VbfArDvr9oFj0-C-28" value="Yes" style="rounded=0;html=1;jettySize=auto;orthogonalLoop=1;fontSize=11;endArrow=block;endFill=0;endSize=8;strokeWidth=1;shadow=0;labelBackgroundColor=none;edgeStyle=orthogonalEdgeStyle;" edge="1" parent="WIyWlLk6GJQsqaUBKTNV-1">
          <mxGeometry x="1" y="192" relative="1" as="geometry">
            <mxPoint x="-102" y="170" as="offset" />
            <Array as="points">
              <mxPoint x="90" y="340" />
            </Array>
            <mxPoint x="256.81818181818176" y="340" as="sourcePoint" />
            <mxPoint x="90" y="460" as="targetPoint" />
          </mxGeometry>
        </mxCell>
        <mxCell id="m49f3VbfArDvr9oFj0-C-29" value="NO" style="rounded=0;html=1;jettySize=auto;orthogonalLoop=1;fontSize=11;endArrow=block;endFill=0;endSize=8;strokeWidth=1;shadow=0;labelBackgroundColor=none;edgeStyle=orthogonalEdgeStyle;" edge="1" parent="WIyWlLk6GJQsqaUBKTNV-1">
          <mxGeometry x="1" y="488" relative="1" as="geometry">
            <mxPoint x="-88" y="280" as="offset" />
            <Array as="points">
              <mxPoint x="90" y="340" />
            </Array>
            <mxPoint x="256.81818181818176" y="340" as="sourcePoint" />
            <mxPoint x="90" y="460" as="targetPoint" />
          </mxGeometry>
        </mxCell>
        <mxCell id="m49f3VbfArDvr9oFj0-C-30" value="Yes" style="rounded=0;html=1;jettySize=auto;orthogonalLoop=1;fontSize=11;endArrow=block;endFill=0;endSize=8;strokeWidth=1;shadow=0;labelBackgroundColor=none;edgeStyle=orthogonalEdgeStyle;" edge="1" parent="WIyWlLk6GJQsqaUBKTNV-1">
          <mxGeometry x="1" y="430" relative="1" as="geometry">
            <mxPoint x="-180" y="350" as="offset" />
            <Array as="points">
              <mxPoint x="100" y="350" />
            </Array>
            <mxPoint x="266.81818181818176" y="350" as="sourcePoint" />
            <mxPoint x="100" y="470" as="targetPoint" />
          </mxGeometry>
        </mxCell>
      </root>
    </mxGraphModel>
  </diagram>
</mxfile>
